<svg width="50" height="57" viewBox="0 0 50 57" fill="none" xmlns="http://www.w3.org/2000/svg">
<path d="M44.6429 0H5.35714C2.5 0 0 2.49375 0 5.34375V51.6562C0 54.5062 2.5 57 5.35714 57H44.6429C47.5 57 50 54.5062 50 51.6562V5.34375C50 2.49375 47.5 0 44.6429 0ZM14.2857 48.45C14.2857 49.1625 13.5714 49.875 12.8571 49.875H8.57143C7.85714 49.875 7.14286 49.1625 7.14286 48.45V44.175C7.14286 43.4625 7.85714 42.75 8.57143 42.75H12.8571C13.5714 42.75 14.2857 43.4625 14.2857 44.175V48.45ZM14.2857 34.2C14.2857 34.9125 13.5714 35.625 12.8571 35.625H8.57143C7.85714 35.625 7.14286 34.9125 7.14286 34.2V29.925C7.14286 29.2125 7.85714 28.5 8.57143 28.5H12.8571C13.5714 28.5 14.2857 29.2125 14.2857 29.925V34.2ZM28.5714 48.45C28.5714 49.1625 27.8571 49.875 27.1429 49.875H22.8571C22.1429 49.875 21.4286 49.1625 21.4286 48.45V44.175C21.4286 43.4625 22.1429 42.75 22.8571 42.75H27.1429C27.8571 42.75 28.5714 43.4625 28.5714 44.175V48.45ZM28.5714 34.2C28.5714 34.9125 27.8571 35.625 27.1429 35.625H22.8571C22.1429 35.625 21.4286 34.9125 21.4286 34.2V29.925C21.4286 29.2125 22.1429 28.5 22.8571 28.5H27.1429C27.8571 28.5 28.5714 29.2125 28.5714 29.925V34.2ZM42.8571 48.45C42.8571 49.1625 42.1429 49.875 41.4286 49.875H37.1429C36.4286 49.875 35.7143 49.1625 35.7143 48.45V29.925C35.7143 29.2125 36.4286 28.5 37.1429 28.5H41.4286C42.1429 28.5 42.8571 29.2125 42.8571 29.925V48.45ZM42.8571 19.95C42.8571 20.6625 42.1429 21.375 41.4286 21.375H8.57143C7.85714 21.375 7.14286 20.6625 7.14286 19.95V8.55C7.14286 7.8375 7.85714 7.125 8.57143 7.125H41.4286C42.1429 7.125 42.8571 7.8375 42.8571 8.55V19.95Z" fill="#A90047"/>
</svg>
