<svg width="50" height="40" viewBox="0 0 50 40" fill="none" xmlns="http://www.w3.org/2000/svg">
<path d="M30 25H20C18.6195 25 17.5 26.1195 17.5 27.5V37.5C17.5 38.8805 18.6195 40 20 40H30C31.3805 40 32.5 38.8805 32.5 37.5V27.5C32.5 26.1195 31.3805 25 30 25ZM15 2.5C15 1.11953 13.8805 0 12.5 0H2.5C1.11953 0 0 1.11953 0 2.5V12.5C0 13.8805 1.11953 15 2.5 15H9.97812L15.6938 25.0031C16.5609 23.5141 18.1562 22.5 20 22.5H20.0219L15 13.7117V10H32.5V5H15V2.5ZM47.5 0H37.5C36.1195 0 35 1.11953 35 2.5V12.5C35 13.8805 36.1195 15 37.5 15H47.5C48.8805 15 50 13.8805 50 12.5V2.5C50 1.11953 48.8805 0 47.5 0Z" fill="#A90047"/>
</svg>
