<svg width="51" height="54" viewBox="0 0 51 54" fill="none" xmlns="http://www.w3.org/2000/svg">
<path d="M11.7446 22.5547L0.749998 38.6916C0.42917 39.2092 0.760415 39.882 1.3677 39.9483L23.0611 42.2328L11.7446 22.5547ZM1.39686 32.9445L9.23946 20.2795L1.25624 15.5199C0.97812 15.3543 0.625 15.553 0.625 15.875V32.7281C0.625 33.1453 1.17603 33.3006 1.39686 32.9445ZM2.52601 44.1416L22.7757 53.2157C23.3278 53.4693 23.958 53.0677 23.958 52.4642V45.6664L2.75518 43.358C2.29164 43.3063 2.10623 43.9367 2.52601 44.1416ZM10.9863 17.4577L19.3122 2.66138C19.7643 1.93056 18.9383 1.08278 18.1893 1.50823L2.48018 11.7158C2.22289 11.8835 2.23123 12.2603 2.49372 12.4176L10.9863 17.4577ZM25.6246 18.5115H37.0005L27.0444 1.08175C26.7184 0.555895 26.1715 0.292969 25.6246 0.292969C25.0778 0.292969 24.5309 0.555895 24.2049 1.08175L14.2488 18.5115H25.6246ZM49.993 15.5199L42.0098 20.2805L49.8524 32.9455C50.0722 33.3016 50.6243 33.1463 50.6243 32.7281V15.875C50.6243 15.553 50.2712 15.3543 49.993 15.5199ZM40.263 17.4577L48.7556 12.4166C49.0191 12.2592 49.0264 11.8824 48.7691 11.7147L33.0599 1.50823C32.311 1.08278 31.485 1.93056 31.937 2.66138L40.263 17.4577ZM48.4941 43.358L27.2913 45.6653V52.4631C27.2913 53.0676 27.9215 53.4683 28.4736 53.2146L48.7233 44.1406C49.143 43.9367 48.9576 43.3063 48.4941 43.358ZM39.5046 22.5547L28.1892 42.2328L49.8826 39.9483C50.4899 39.881 50.8211 39.2092 50.5003 38.6916L39.5046 22.5547ZM25.6246 21.8239H15.1633L25.6246 40.0166L36.0859 21.8239H25.6246Z" fill="#A90047"/>
</svg>
