<svg width="51" height="41" viewBox="0 0 51 41" fill="none" xmlns="http://www.w3.org/2000/svg">
<path d="M20.6 20.7344C21.0883 21.2227 21.8797 21.2227 22.368 20.7344L23.2516 19.8508C23.7398 19.3625 23.7398 18.5711 23.2516 18.0828L20.4609 15.293L23.2508 12.5023C23.7391 12.0141 23.7391 11.2227 23.2508 10.7344L22.3672 9.85078C21.8789 9.3625 21.0875 9.3625 20.5992 9.85078L16.0414 14.4086C15.5531 14.8969 15.5531 15.6883 16.0414 16.1766L20.6 20.7344ZM28.1008 19.8516L28.9844 20.7352C29.4727 21.2234 30.2641 21.2234 30.7523 20.7352L35.3102 16.1773C35.7984 15.6891 35.7984 14.8977 35.3102 14.4094L30.7523 9.85156C30.2641 9.36328 29.4727 9.36328 28.9844 9.85156L28.1008 10.7352C27.6125 11.2234 27.6125 12.0148 28.1008 12.5031L30.8906 15.293L28.1008 18.0836C27.6125 18.5719 27.6125 19.3633 28.1008 19.8516ZM49.4258 32.793H30.4836C30.4258 34.3406 29.3344 35.293 27.9258 35.293H23.1758C21.7156 35.293 20.5961 33.9281 20.6156 32.793H1.92578C1.23828 32.793 0.675781 33.3555 0.675781 34.043V35.293C0.675781 38.043 2.92578 40.293 5.67578 40.293H45.6758C48.4258 40.293 50.6758 38.043 50.6758 35.293V34.043C50.6758 33.3555 50.1133 32.793 49.4258 32.793ZM45.6758 4.04297C45.6758 1.98047 43.9883 0.292969 41.9258 0.292969H9.42578C7.36328 0.292969 5.67578 1.98047 5.67578 4.04297V30.293H45.6758V4.04297ZM40.6758 25.293H10.6758V5.29297H40.6758V25.293Z" fill="#A90047"/>
</svg>
