<svg width="40" height="58" viewBox="0 0 40 58" fill="none" xmlns="http://www.w3.org/2000/svg">
<path d="M10.9159 51.4683C10.917 52.1809 11.1284 52.8787 11.525 53.4722L13.467 56.3824C13.7988 56.8799 14.2488 57.2879 14.7769 57.5701C15.3051 57.8523 15.8951 58 16.4943 58H23.5068C24.1061 58 24.696 57.8523 25.2242 57.5701C25.7524 57.2879 26.2023 56.8799 26.5341 56.3824L28.4761 53.4722C28.8726 52.8786 29.0844 52.1815 29.0852 51.4683L29.0898 47.1241H10.9102L10.9159 51.4683ZM0 19.9372C0 24.9634 1.86932 29.5489 4.95 33.0526C6.82727 35.1879 9.76364 39.6488 10.883 43.4119C10.8875 43.4414 10.8909 43.4709 10.8955 43.5003H29.1045C29.1091 43.4709 29.1125 43.4425 29.117 43.4119C30.2364 39.6488 33.1727 35.1879 35.05 33.0526C38.1307 29.5489 40 24.9634 40 19.9372C40 8.90495 31.0125 -0.0338871 19.9375 9.65791e-05C8.34545 0.035213 0 9.39884 0 19.9372ZM20 10.8749C14.9875 10.8749 10.9091 14.9404 10.9091 19.9372C10.9091 20.9386 10.0955 21.7496 9.09091 21.7496C8.08636 21.7496 7.27273 20.9386 7.27273 19.9372C7.27273 12.9411 12.9818 7.24994 20 7.24994C21.0045 7.24994 21.8182 8.06102 21.8182 9.0624C21.8182 10.0638 21.0045 10.8749 20 10.8749Z" fill="#A90047"/>
</svg>
