<svg width="51" height="51" viewBox="0 0 51 51" fill="none" xmlns="http://www.w3.org/2000/svg">
<path d="M16.2754 31.543H17.4473V33.1055C17.4473 33.9688 18.1465 34.668 19.0098 34.668H22.916C23.7793 34.668 24.4785 33.9688 24.4785 33.1055V31.543H25.6504C27.376 31.543 28.7754 30.1436 28.7754 28.418V6.54297C28.7754 4.81738 27.376 3.41797 25.6504 3.41797V1.85547C25.6504 0.992188 24.9512 0.292969 24.0879 0.292969H17.8379C16.9746 0.292969 16.2754 0.992188 16.2754 1.85547V3.41797C14.5498 3.41797 13.1504 4.81738 13.1504 6.54297V28.418C13.1504 30.1436 14.5498 31.543 16.2754 31.543ZM45.9629 44.043H45.8369C48.8184 40.7217 50.6504 36.3477 50.6504 31.543C50.6504 21.2031 42.2402 12.793 31.9004 12.793V19.043C38.793 19.043 44.4004 24.6504 44.4004 31.543C44.4004 38.4355 38.793 44.043 31.9004 44.043H5.33789C2.74902 44.043 0.650391 46.1416 0.650391 48.7305C0.650391 49.5938 1.34961 50.293 2.21289 50.293H49.0879C49.9512 50.293 50.6504 49.5938 50.6504 48.7305C50.6504 46.1416 48.5518 44.043 45.9629 44.043ZM10.8066 40.918H31.1191C31.5508 40.918 31.9004 40.5684 31.9004 40.1367V38.5742C31.9004 38.1426 31.5508 37.793 31.1191 37.793H10.8066C10.375 37.793 10.0254 38.1426 10.0254 38.5742V40.1367C10.0254 40.5684 10.375 40.918 10.8066 40.918Z" fill="#A90047"/>
</svg>
