<svg width="51" height="51" viewBox="0 0 51 51" fill="none" xmlns="http://www.w3.org/2000/svg">
<path d="M35.0501 9.66794C35.0501 4.49022 30.8529 0.292969 25.6753 0.292969C20.4977 0.292969 16.3005 4.49022 16.3005 9.66794C16.3005 14.8457 20.4977 19.0429 25.6753 19.0429C30.8529 19.0429 35.0501 14.8457 35.0501 9.66794ZM23.4869 23.8378C17.693 20.291 8.30844 19.3164 3.58588 19.0478C1.999 18.958 0.675781 20.1669 0.675781 21.6933V43.4511C0.675781 44.8505 1.8076 46.0175 3.26264 46.0927C7.52623 46.3163 16.152 47.1356 22.1138 50.1385C23.0289 50.5995 24.1138 49.9715 24.1138 48.9794V24.957C24.1128 24.5009 23.8872 24.0829 23.4869 23.8378ZM47.7647 19.0478C43.0431 19.3154 33.6576 20.291 27.8647 23.8378C27.4643 24.0829 27.2387 24.5175 27.2387 24.9736V48.9764C27.2387 49.9715 28.3266 50.6005 29.2446 50.1385C35.2054 47.1386 43.8263 46.3192 48.0889 46.0956C49.544 46.0194 50.6758 44.8524 50.6758 43.453V21.6933C50.6748 20.1669 49.3516 18.958 47.7647 19.0478Z" fill="#A90047"/>
</svg>
