<svg width="50" height="30" viewBox="0 0 50 30" fill="none" xmlns="http://www.w3.org/2000/svg">
<path d="M27.5 17.5H26.25V10.625C26.25 10.2797 25.9703 10 25.625 10H24.5641C24.1938 10 23.832 10.1094 23.5242 10.3148L22.3266 11.1133C22.2583 11.1588 22.1996 11.2173 22.1539 11.2854C22.1082 11.3536 22.0764 11.4301 22.0603 11.5105C22.0442 11.591 22.0441 11.6739 22.06 11.7544C22.076 11.8349 22.1076 11.9114 22.1531 11.9797L22.8469 13.0195C22.8924 13.0878 22.9508 13.1465 23.019 13.1922C23.0872 13.2379 23.1637 13.2697 23.2441 13.2858C23.3246 13.3019 23.4074 13.302 23.4879 13.2861C23.5684 13.2701 23.645 13.2385 23.7133 13.193L23.75 13.1687V17.5H22.5C22.1547 17.5 21.875 17.7797 21.875 18.125V19.375C21.875 19.7203 22.1547 20 22.5 20H27.5C27.8453 20 28.125 19.7203 28.125 19.375V18.125C28.125 17.7797 27.8453 17.5 27.5 17.5ZM47.5 0H2.5C1.11953 0 0 1.11953 0 2.5V27.5C0 28.8805 1.11953 30 2.5 30H47.5C48.8805 30 50 28.8805 50 27.5V2.5C50 1.11953 48.8805 0 47.5 0ZM3.75 26.25V21.25C6.51172 21.25 8.75 23.4883 8.75 26.25H3.75ZM3.75 8.75V3.75H8.75C8.75 6.51172 6.51172 8.75 3.75 8.75ZM25 23.75C20.8578 23.75 17.5 19.832 17.5 15C17.5 10.1672 20.8578 6.25 25 6.25C29.1422 6.25 32.5 10.1672 32.5 15C32.5 19.8336 29.1406 23.75 25 23.75ZM46.25 26.25H41.25C41.25 23.4883 43.4883 21.25 46.25 21.25V26.25ZM46.25 8.75C43.4883 8.75 41.25 6.51172 41.25 3.75H46.25V8.75Z" fill="#A90047"/>
</svg>
