<svg width="50" height="50" viewBox="0 0 50 50" fill="none" xmlns="http://www.w3.org/2000/svg">
<path d="M37.1547 35.877L40.0585 34.4758C41.1777 36.7843 42.68 38.8306 44.5049 40.6149C47.933 36.3306 50 30.9073 50 25C50 19.1028 47.9431 13.6895 44.5352 9.41532C42.7405 11.1593 41.2482 13.1552 40.1391 15.4133L37.2454 13.9919C38.536 11.371 40.2702 9.05242 42.3674 7.03629C37.8705 2.69153 31.7604 0 25.005 0C18.2597 0 12.1496 2.68145 7.65275 7.02621C9.73987 9.03226 11.4741 11.3508 12.7647 13.9617L9.87094 15.3831C8.76185 13.1351 7.27969 11.1391 5.48498 9.39516C2.05687 13.6794 0 19.0927 0 25C0 30.9073 2.05687 36.3206 5.48498 40.5948C7.32002 38.8105 8.83243 36.7641 9.9516 34.4456L12.8554 35.8468C11.5547 38.5383 9.80036 40.9173 7.66284 42.9738C12.1496 47.3185 18.2597 50 25.005 50C31.7403 50 37.8403 47.3286 42.3372 42.994C40.2097 40.9375 38.4553 38.5685 37.1547 35.877ZM14.1359 32.6512L11.0607 31.6633C12.563 26.9859 12.3412 22.2077 11.0002 18.1552L14.0653 17.1472C15.5777 21.744 15.8802 27.2177 14.1359 32.6512ZM35.9447 17.1875L39.0099 18.1956C37.679 22.2379 37.4471 27.0161 38.9494 31.7036L35.8742 32.6915C34.1299 27.248 34.4323 21.7742 35.9447 17.1875Z" fill="#A90047"/>
</svg>
