<svg width="51" height="51" viewBox="0 0 51 51" fill="none" xmlns="http://www.w3.org/2000/svg">
<path d="M50.3065 44.0931L40.3745 34.163C39.9262 33.7148 39.3186 33.4658 38.6811 33.4658H37.0575C39.8067 29.9496 41.4403 25.5279 41.4403 20.7168C41.4403 9.27264 32.1657 0 20.7206 0C9.27558 0 0 9.27264 0 20.7168C0 32.1609 9.27458 41.4335 20.7206 41.4335C25.5317 41.4335 29.9554 39.7999 33.4716 37.0507V38.6743C33.4716 39.3118 33.7206 39.9195 34.1688 40.3677L44.1008 50.2978C45.0372 51.2341 46.5512 51.2341 47.4776 50.2978L50.2965 47.4788C51.2328 46.5425 51.2328 45.0294 50.3065 44.0931ZM20.7206 35.0585C12.7977 35.0585 6.37696 28.6496 6.37696 20.7168C6.37696 12.7948 12.7868 6.375 20.7206 6.375C28.6435 6.375 35.0643 12.7839 35.0643 20.7168C35.0643 28.6387 28.6545 35.0585 20.7206 35.0585ZM23.421 19.8641L18.9376 18.5194C18.4237 18.365 18.0641 17.844 18.0641 17.2513C18.0641 16.5272 18.592 15.9375 19.2395 15.9375H22.0395C22.4937 15.9375 22.932 16.066 23.3164 16.308C23.6392 16.5103 24.0496 16.4983 24.3255 16.2353L25.4959 15.1187C25.8475 14.783 25.8276 14.2013 25.4391 13.9095C24.5327 13.2291 23.439 12.8367 22.3144 12.7789V11.1562C22.3144 10.716 21.9578 10.3594 21.5175 10.3594H19.9238C19.4835 10.3594 19.1269 10.716 19.1269 11.1562V12.762C16.7731 12.8247 14.8756 14.8089 14.8756 17.2513C14.8756 19.2405 16.1695 21.0176 18.0212 21.5734L22.5046 22.9181C23.0186 23.0725 23.3782 23.5935 23.3782 24.1862C23.3782 24.9103 22.8503 25.5 22.2028 25.5H19.4038C18.9496 25.5 18.5113 25.3715 18.1268 25.1295C17.8041 24.9272 17.3937 24.9392 17.1178 25.2022L15.9474 26.3188C15.5958 26.6545 15.6157 27.2362 16.0042 27.528C16.9106 28.2084 18.0043 28.6008 19.1289 28.6586V30.2812C19.1289 30.7215 19.4855 31.0781 19.9258 31.0781H21.5195C21.9598 31.0781 22.3164 30.7215 22.3164 30.2812V28.6755C24.6701 28.6128 26.5677 26.6296 26.5677 24.1862C26.5677 22.197 25.2738 20.4199 23.421 19.8641Z" fill="#A90047"/>
</svg>
