<svg width="50" height="40" viewBox="0 0 50 40" fill="none" xmlns="http://www.w3.org/2000/svg">
<path d="M16.2501 27.5C16.0634 27.5 15.8766 27.5273 15.6985 27.5852C14.686 27.9141 13.6212 28.125 12.5001 28.125C11.379 28.125 10.3142 27.9141 9.30089 27.5852C9.12276 27.5273 8.93682 27.5 8.7501 27.5C3.90168 27.5 -0.025655 31.4438 0.000126209 36.2984C0.0110637 38.35 1.69778 40 3.75012 40H21.2501C23.3024 40 24.9891 38.35 25.0001 36.2984C25.0258 31.4438 21.0985 27.5 16.2501 27.5ZM12.5001 25C16.6423 25 20.0001 21.6422 20.0001 17.5C20.0001 13.3578 16.6423 10 12.5001 10C8.35792 10 5.00011 13.3578 5.00011 17.5C5.00011 21.6422 8.35792 25 12.5001 25ZM46.25 0H16.2501C14.1821 0 12.5001 1.73828 12.5001 3.87422V7.5C14.3298 7.5 16.0235 8.02969 17.5001 8.89062V5H45V27.5H40V22.5H30.0001V27.5H24.0438C25.536 28.8039 26.6313 30.5258 27.1446 32.5H46.25C48.318 32.5 50 30.7617 50 28.6258V3.87422C50 1.73828 48.318 0 46.25 0Z" fill="#A90047"/>
</svg>
