<svg width="36" height="24" viewBox="0 0 36 24" fill="none" xmlns="http://www.w3.org/2000/svg">
<path d="M35.2477 3.75519C34.8337 2.27706 33.6138 1.11294 32.065 0.717875C29.2575 0 18 0 18 0C18 0 6.74254 0 3.93503 0.717875C2.38616 1.113 1.16629 2.27706 0.752255 3.75519C0 6.43437 0 12.0243 0 12.0243C0 12.0243 0 17.6141 0.752255 20.2933C1.16629 21.7714 2.38616 22.8871 3.93503 23.2821C6.74254 24 18 24 18 24C18 24 29.2575 24 32.065 23.2821C33.6138 22.8871 34.8337 21.7714 35.2477 20.2933C36 17.6141 36 12.0243 36 12.0243C36 12.0243 36 6.43437 35.2477 3.75519ZM14.3182 17.0994V6.94906L23.7272 12.0244L14.3182 17.0994Z" fill="white"/>
</svg>
